<svg xmlns="http://www.w3.org/2000/svg" xmlns:xlink="http://www.w3.org/1999/xlink" width="1024" zoomAndPan="magnify" viewBox="0 0 768 767.999994" height="1024" preserveAspectRatio="xMidYMid meet" version="1.2"><metadata><ContainsAiGeneratedContent>Yes</ContainsAiGeneratedContent></metadata><defs><linearGradient x1="0" gradientTransform="matrix(0.75,0,0,0.75,0.000003,0.00002)" y1="512" x2="1023.999957" gradientUnits="userSpaceOnUse" y2="512" id="9e1db0c850"><stop style="stop-color:#000000;stop-opacity:1;" offset="0"/><stop style="stop-color:#000001;stop-opacity:1;" offset="0.00390625"/><stop style="stop-color:#000002;stop-opacity:1;" offset="0.0078125"/><stop style="stop-color:#010102;stop-opacity:1;" offset="0.0117188"/><stop style="stop-color:#010103;stop-opacity:1;" offset="0.015625"/><stop style="stop-color:#010104;stop-opacity:1;" offset="0.0195312"/><stop style="stop-color:#010105;stop-opacity:1;" offset="0.0234375"/><stop style="stop-color:#010106;stop-opacity:1;" offset="0.0273438"/><stop style="stop-color:#020206;stop-opacity:1;" offset="0.03125"/><stop style="stop-color:#020207;stop-opacity:1;" offset="0.0351562"/><stop style="stop-color:#020208;stop-opacity:1;" offset="0.0390625"/><stop style="stop-color:#020209;stop-opacity:1;" offset="0.0429688"/><stop style="stop-color:#02020a;stop-opacity:1;" offset="0.046875"/><stop style="stop-color:#03030a;stop-opacity:1;" offset="0.0507812"/><stop style="stop-color:#03030b;stop-opacity:1;" offset="0.0546875"/><stop style="stop-color:#03030c;stop-opacity:1;" offset="0.0585938"/><stop style="stop-color:#03030d;stop-opacity:1;" offset="0.0625"/><stop style="stop-color:#04030e;stop-opacity:1;" offset="0.0664062"/><stop style="stop-color:#04040e;stop-opacity:1;" offset="0.0703125"/><stop style="stop-color:#04040f;stop-opacity:1;" offset="0.0742188"/><stop style="stop-color:#040410;stop-opacity:1;" offset="0.078125"/><stop style="stop-color:#040411;stop-opacity:1;" offset="0.0820312"/><stop style="stop-color:#050412;stop-opacity:1;" offset="0.0859375"/><stop style="stop-color:#050512;stop-opacity:1;" offset="0.0898438"/><stop style="stop-color:#050513;stop-opacity:1;" offset="0.09375"/><stop style="stop-color:#050514;stop-opacity:1;" offset="0.0976562"/><stop style="stop-color:#050515;stop-opacity:1;" offset="0.101562"/><stop style="stop-color:#060516;stop-opacity:1;" offset="0.105469"/><stop style="stop-color:#060616;stop-opacity:1;" offset="0.109375"/><stop style="stop-color:#060617;stop-opacity:1;" offset="0.113281"/><stop style="stop-color:#060618;stop-opacity:1;" offset="0.117188"/><stop style="stop-color:#060619;stop-opacity:1;" offset="0.121094"/><stop style="stop-color:#07061a;stop-opacity:1;" offset="0.125"/><stop style="stop-color:#07071a;stop-opacity:1;" offset="0.128906"/><stop style="stop-color:#07071b;stop-opacity:1;" offset="0.132812"/><stop style="stop-color:#07071c;stop-opacity:1;" offset="0.136719"/><stop style="stop-color:#07071d;stop-opacity:1;" offset="0.140625"/><stop style="stop-color:#08071e;stop-opacity:1;" offset="0.144531"/><stop style="stop-color:#08081e;stop-opacity:1;" offset="0.148438"/><stop style="stop-color:#08081f;stop-opacity:1;" offset="0.152344"/><stop style="stop-color:#080820;stop-opacity:1;" offset="0.15625"/><stop style="stop-color:#080821;stop-opacity:1;" offset="0.160156"/><stop style="stop-color:#090822;stop-opacity:1;" offset="0.164062"/><stop style="stop-color:#090922;stop-opacity:1;" offset="0.167969"/><stop style="stop-color:#090923;stop-opacity:1;" offset="0.171875"/><stop style="stop-color:#090924;stop-opacity:1;" offset="0.175781"/><stop style="stop-color:#0a0925;stop-opacity:1;" offset="0.179688"/><stop style="stop-color:#0a0926;stop-opacity:1;" offset="0.183594"/><stop style="stop-color:#0a0a26;stop-opacity:1;" offset="0.1875"/><stop style="stop-color:#0a0a27;stop-opacity:1;" offset="0.191406"/><stop style="stop-color:#0a0a28;stop-opacity:1;" offset="0.195312"/><stop style="stop-color:#0b0a29;stop-opacity:1;" offset="0.199219"/><stop style="stop-color:#0b0a2a;stop-opacity:1;" offset="0.203125"/><stop style="stop-color:#0b0b2a;stop-opacity:1;" offset="0.207031"/><stop style="stop-color:#0b0b2b;stop-opacity:1;" offset="0.210938"/><stop style="stop-color:#0b0b2c;stop-opacity:1;" offset="0.214844"/><stop style="stop-color:#0c0b2d;stop-opacity:1;" offset="0.21875"/><stop style="stop-color:#0c0b2e;stop-opacity:1;" offset="0.222656"/><stop style="stop-color:#0c0c2e;stop-opacity:1;" offset="0.226562"/><stop style="stop-color:#0c0c2f;stop-opacity:1;" offset="0.230469"/><stop style="stop-color:#0c0c30;stop-opacity:1;" offset="0.234375"/><stop style="stop-color:#0d0c31;stop-opacity:1;" offset="0.238281"/><stop style="stop-color:#0d0c32;stop-opacity:1;" offset="0.242188"/><stop style="stop-color:#0d0d32;stop-opacity:1;" offset="0.246094"/><stop style="stop-color:#0d0d33;stop-opacity:1;" offset="0.25"/><stop style="stop-color:#0d0d34;stop-opacity:1;" offset="0.253906"/><stop style="stop-color:#0e0d35;stop-opacity:1;" offset="0.257812"/><stop style="stop-color:#0e0d36;stop-opacity:1;" offset="0.261719"/><stop style="stop-color:#0e0e36;stop-opacity:1;" offset="0.265625"/><stop style="stop-color:#0e0e37;stop-opacity:1;" offset="0.269531"/><stop style="stop-color:#0f0e38;stop-opacity:1;" offset="0.273438"/><stop style="stop-color:#0f0e39;stop-opacity:1;" offset="0.277344"/><stop style="stop-color:#0f0e3a;stop-opacity:1;" offset="0.28125"/><stop style="stop-color:#0f0f3a;stop-opacity:1;" offset="0.285156"/><stop style="stop-color:#0f0f3b;stop-opacity:1;" offset="0.289062"/><stop style="stop-color:#100f3c;stop-opacity:1;" offset="0.292969"/><stop style="stop-color:#100f3d;stop-opacity:1;" offset="0.296875"/><stop style="stop-color:#100f3e;stop-opacity:1;" offset="0.300781"/><stop style="stop-color:#10103e;stop-opacity:1;" offset="0.304688"/><stop style="stop-color:#10103f;stop-opacity:1;" offset="0.308594"/><stop style="stop-color:#111040;stop-opacity:1;" offset="0.3125"/><stop style="stop-color:#111041;stop-opacity:1;" offset="0.316406"/><stop style="stop-color:#111042;stop-opacity:1;" offset="0.320312"/><stop style="stop-color:#111142;stop-opacity:1;" offset="0.324219"/><stop style="stop-color:#111143;stop-opacity:1;" offset="0.328125"/><stop style="stop-color:#121144;stop-opacity:1;" offset="0.332031"/><stop style="stop-color:#121145;stop-opacity:1;" offset="0.335938"/><stop style="stop-color:#121146;stop-opacity:1;" offset="0.339844"/><stop style="stop-color:#121246;stop-opacity:1;" offset="0.34375"/><stop style="stop-color:#121247;stop-opacity:1;" offset="0.347656"/><stop style="stop-color:#131248;stop-opacity:1;" offset="0.351562"/><stop style="stop-color:#131249;stop-opacity:1;" offset="0.355469"/><stop style="stop-color:#13124a;stop-opacity:1;" offset="0.359375"/><stop style="stop-color:#13134a;stop-opacity:1;" offset="0.363281"/><stop style="stop-color:#13134b;stop-opacity:1;" offset="0.367188"/><stop style="stop-color:#14134c;stop-opacity:1;" offset="0.371094"/><stop style="stop-color:#14134d;stop-opacity:1;" offset="0.375"/><stop style="stop-color:#14134e;stop-opacity:1;" offset="0.378906"/><stop style="stop-color:#14144e;stop-opacity:1;" offset="0.382812"/><stop style="stop-color:#15144f;stop-opacity:1;" offset="0.386719"/><stop style="stop-color:#151450;stop-opacity:1;" offset="0.390625"/><stop style="stop-color:#151451;stop-opacity:1;" offset="0.394531"/><stop style="stop-color:#151452;stop-opacity:1;" offset="0.398438"/><stop style="stop-color:#151552;stop-opacity:1;" offset="0.402344"/><stop style="stop-color:#161553;stop-opacity:1;" offset="0.40625"/><stop style="stop-color:#161554;stop-opacity:1;" offset="0.410156"/><stop style="stop-color:#161555;stop-opacity:1;" offset="0.414062"/><stop style="stop-color:#161556;stop-opacity:1;" offset="0.417969"/><stop style="stop-color:#161656;stop-opacity:1;" offset="0.421875"/><stop style="stop-color:#171657;stop-opacity:1;" offset="0.425781"/><stop style="stop-color:#171658;stop-opacity:1;" offset="0.429688"/><stop style="stop-color:#171659;stop-opacity:1;" offset="0.433594"/><stop style="stop-color:#17165a;stop-opacity:1;" offset="0.4375"/><stop style="stop-color:#17175a;stop-opacity:1;" offset="0.441406"/><stop style="stop-color:#18175b;stop-opacity:1;" offset="0.445312"/><stop style="stop-color:#18175c;stop-opacity:1;" offset="0.449219"/><stop style="stop-color:#18175d;stop-opacity:1;" offset="0.453125"/><stop style="stop-color:#18175e;stop-opacity:1;" offset="0.457031"/><stop style="stop-color:#18185f;stop-opacity:1;" offset="0.460938"/><stop style="stop-color:#19185f;stop-opacity:1;" offset="0.464844"/><stop style="stop-color:#191860;stop-opacity:1;" offset="0.46875"/><stop style="stop-color:#191861;stop-opacity:1;" offset="0.472656"/><stop style="stop-color:#191862;stop-opacity:1;" offset="0.476562"/><stop style="stop-color:#191963;stop-opacity:1;" offset="0.480469"/><stop style="stop-color:#1a1963;stop-opacity:1;" offset="0.484375"/><stop style="stop-color:#1a1964;stop-opacity:1;" offset="0.488281"/><stop style="stop-color:#1a1965;stop-opacity:1;" offset="0.492188"/><stop style="stop-color:#1a1966;stop-opacity:1;" offset="0.496094"/><stop style="stop-color:#1b1967;stop-opacity:1;" offset="0.5"/><stop style="stop-color:#1b1a67;stop-opacity:1;" offset="0.503906"/><stop style="stop-color:#1b1a68;stop-opacity:1;" offset="0.507812"/><stop style="stop-color:#1b1a69;stop-opacity:1;" offset="0.511719"/><stop style="stop-color:#1b1a6a;stop-opacity:1;" offset="0.515625"/><stop style="stop-color:#1c1a6b;stop-opacity:1;" offset="0.519531"/><stop style="stop-color:#1c1b6b;stop-opacity:1;" offset="0.523438"/><stop style="stop-color:#1c1b6c;stop-opacity:1;" offset="0.527344"/><stop style="stop-color:#1c1b6d;stop-opacity:1;" offset="0.53125"/><stop style="stop-color:#1c1b6e;stop-opacity:1;" offset="0.535156"/><stop style="stop-color:#1d1b6f;stop-opacity:1;" offset="0.539062"/><stop style="stop-color:#1d1c6f;stop-opacity:1;" offset="0.542969"/><stop style="stop-color:#1d1c70;stop-opacity:1;" offset="0.546875"/><stop style="stop-color:#1d1c71;stop-opacity:1;" offset="0.550781"/><stop style="stop-color:#1d1c72;stop-opacity:1;" offset="0.554688"/><stop style="stop-color:#1e1c73;stop-opacity:1;" offset="0.558594"/><stop style="stop-color:#1e1d73;stop-opacity:1;" offset="0.5625"/><stop style="stop-color:#1e1d74;stop-opacity:1;" offset="0.566406"/><stop style="stop-color:#1e1d75;stop-opacity:1;" offset="0.570312"/><stop style="stop-color:#1e1d76;stop-opacity:1;" offset="0.574219"/><stop style="stop-color:#1f1d77;stop-opacity:1;" offset="0.578125"/><stop style="stop-color:#1f1e77;stop-opacity:1;" offset="0.582031"/><stop style="stop-color:#1f1e78;stop-opacity:1;" offset="0.585938"/><stop style="stop-color:#1f1e79;stop-opacity:1;" offset="0.589844"/><stop style="stop-color:#1f1e7a;stop-opacity:1;" offset="0.59375"/><stop style="stop-color:#201e7b;stop-opacity:1;" offset="0.597656"/><stop style="stop-color:#201f7b;stop-opacity:1;" offset="0.601562"/><stop style="stop-color:#201f7c;stop-opacity:1;" offset="0.605469"/><stop style="stop-color:#201f7d;stop-opacity:1;" offset="0.609375"/><stop style="stop-color:#211f7e;stop-opacity:1;" offset="0.613281"/><stop style="stop-color:#211f7f;stop-opacity:1;" offset="0.617188"/><stop style="stop-color:#21207f;stop-opacity:1;" offset="0.621094"/><stop style="stop-color:#212080;stop-opacity:1;" offset="0.625"/><stop style="stop-color:#212081;stop-opacity:1;" offset="0.628906"/><stop style="stop-color:#222082;stop-opacity:1;" offset="0.632812"/><stop style="stop-color:#222083;stop-opacity:1;" offset="0.636719"/><stop style="stop-color:#222183;stop-opacity:1;" offset="0.640625"/><stop style="stop-color:#222184;stop-opacity:1;" offset="0.644531"/><stop style="stop-color:#222185;stop-opacity:1;" offset="0.648438"/><stop style="stop-color:#232186;stop-opacity:1;" offset="0.652344"/><stop style="stop-color:#232187;stop-opacity:1;" offset="0.65625"/><stop style="stop-color:#232287;stop-opacity:1;" offset="0.660156"/><stop style="stop-color:#232288;stop-opacity:1;" offset="0.664062"/><stop style="stop-color:#232289;stop-opacity:1;" offset="0.667969"/><stop style="stop-color:#24228a;stop-opacity:1;" offset="0.671875"/><stop style="stop-color:#24228b;stop-opacity:1;" offset="0.675781"/><stop style="stop-color:#24238b;stop-opacity:1;" offset="0.679688"/><stop style="stop-color:#24238c;stop-opacity:1;" offset="0.683594"/><stop style="stop-color:#24238d;stop-opacity:1;" offset="0.6875"/><stop style="stop-color:#25238e;stop-opacity:1;" offset="0.691406"/><stop style="stop-color:#25238f;stop-opacity:1;" offset="0.695312"/><stop style="stop-color:#25248f;stop-opacity:1;" offset="0.699219"/><stop style="stop-color:#252490;stop-opacity:1;" offset="0.703125"/><stop style="stop-color:#252491;stop-opacity:1;" offset="0.707031"/><stop style="stop-color:#262492;stop-opacity:1;" offset="0.710938"/><stop style="stop-color:#262493;stop-opacity:1;" offset="0.714844"/><stop style="stop-color:#262593;stop-opacity:1;" offset="0.71875"/><stop style="stop-color:#262594;stop-opacity:1;" offset="0.722656"/><stop style="stop-color:#272595;stop-opacity:1;" offset="0.726562"/><stop style="stop-color:#272596;stop-opacity:1;" offset="0.730469"/><stop style="stop-color:#272597;stop-opacity:1;" offset="0.734375"/><stop style="stop-color:#272697;stop-opacity:1;" offset="0.738281"/><stop style="stop-color:#272698;stop-opacity:1;" offset="0.742188"/><stop style="stop-color:#282699;stop-opacity:1;" offset="0.746094"/><stop style="stop-color:#28269a;stop-opacity:1;" offset="0.75"/><stop style="stop-color:#28269b;stop-opacity:1;" offset="0.753906"/><stop style="stop-color:#28279b;stop-opacity:1;" offset="0.757812"/><stop style="stop-color:#28279c;stop-opacity:1;" offset="0.761719"/><stop style="stop-color:#29279d;stop-opacity:1;" offset="0.765625"/><stop style="stop-color:#29279e;stop-opacity:1;" offset="0.769531"/><stop style="stop-color:#29279f;stop-opacity:1;" offset="0.773438"/><stop style="stop-color:#29289f;stop-opacity:1;" offset="0.777344"/><stop style="stop-color:#2928a0;stop-opacity:1;" offset="0.78125"/><stop style="stop-color:#2a28a1;stop-opacity:1;" offset="0.785156"/><stop style="stop-color:#2a28a2;stop-opacity:1;" offset="0.789062"/><stop style="stop-color:#2a28a3;stop-opacity:1;" offset="0.792969"/><stop style="stop-color:#2a29a3;stop-opacity:1;" offset="0.796875"/><stop style="stop-color:#2a29a4;stop-opacity:1;" offset="0.800781"/><stop style="stop-color:#2b29a5;stop-opacity:1;" offset="0.804688"/><stop style="stop-color:#2b29a6;stop-opacity:1;" offset="0.808594"/><stop style="stop-color:#2b29a7;stop-opacity:1;" offset="0.8125"/><stop style="stop-color:#2b2aa7;stop-opacity:1;" offset="0.816406"/><stop style="stop-color:#2c2aa8;stop-opacity:1;" offset="0.820312"/><stop style="stop-color:#2c2aa9;stop-opacity:1;" offset="0.824219"/><stop style="stop-color:#2c2aaa;stop-opacity:1;" offset="0.828125"/><stop style="stop-color:#2c2aab;stop-opacity:1;" offset="0.832031"/><stop style="stop-color:#2c2bab;stop-opacity:1;" offset="0.835938"/><stop style="stop-color:#2d2bac;stop-opacity:1;" offset="0.839844"/><stop style="stop-color:#2d2bad;stop-opacity:1;" offset="0.84375"/><stop style="stop-color:#2d2bae;stop-opacity:1;" offset="0.847656"/><stop style="stop-color:#2d2baf;stop-opacity:1;" offset="0.851562"/><stop style="stop-color:#2d2caf;stop-opacity:1;" offset="0.855469"/><stop style="stop-color:#2e2cb0;stop-opacity:1;" offset="0.859375"/><stop style="stop-color:#2e2cb1;stop-opacity:1;" offset="0.863281"/><stop style="stop-color:#2e2cb2;stop-opacity:1;" offset="0.867188"/><stop style="stop-color:#2e2cb3;stop-opacity:1;" offset="0.871094"/><stop style="stop-color:#2e2db3;stop-opacity:1;" offset="0.875"/><stop style="stop-color:#2f2db4;stop-opacity:1;" offset="0.878906"/><stop style="stop-color:#2f2db5;stop-opacity:1;" offset="0.882812"/><stop style="stop-color:#2f2db6;stop-opacity:1;" offset="0.886719"/><stop style="stop-color:#2f2db7;stop-opacity:1;" offset="0.890625"/><stop style="stop-color:#2f2eb7;stop-opacity:1;" offset="0.894531"/><stop style="stop-color:#302eb8;stop-opacity:1;" offset="0.898438"/><stop style="stop-color:#302eb9;stop-opacity:1;" offset="0.902344"/><stop style="stop-color:#302eba;stop-opacity:1;" offset="0.90625"/><stop style="stop-color:#302ebb;stop-opacity:1;" offset="0.910156"/><stop style="stop-color:#302fbb;stop-opacity:1;" offset="0.914062"/><stop style="stop-color:#312fbc;stop-opacity:1;" offset="0.917969"/><stop style="stop-color:#312fbd;stop-opacity:1;" offset="0.921875"/><stop style="stop-color:#312fbe;stop-opacity:1;" offset="0.925781"/><stop style="stop-color:#312fbf;stop-opacity:1;" offset="0.929688"/><stop style="stop-color:#3230bf;stop-opacity:1;" offset="0.933594"/><stop style="stop-color:#3230c0;stop-opacity:1;" offset="0.9375"/><stop style="stop-color:#3230c1;stop-opacity:1;" offset="0.941406"/><stop style="stop-color:#3230c2;stop-opacity:1;" offset="0.945312"/><stop style="stop-color:#3230c3;stop-opacity:1;" offset="0.949219"/><stop style="stop-color:#3331c3;stop-opacity:1;" offset="0.953125"/><stop style="stop-color:#3331c4;stop-opacity:1;" offset="0.957031"/><stop style="stop-color:#3331c5;stop-opacity:1;" offset="0.960938"/><stop style="stop-color:#3331c6;stop-opacity:1;" offset="0.964844"/><stop style="stop-color:#3331c7;stop-opacity:1;" offset="0.96875"/><stop style="stop-color:#3432c7;stop-opacity:1;" offset="0.972656"/><stop style="stop-color:#3432c8;stop-opacity:1;" offset="0.976562"/><stop style="stop-color:#3432c9;stop-opacity:1;" offset="0.980469"/><stop style="stop-color:#3432ca;stop-opacity:1;" offset="0.984375"/><stop style="stop-color:#3432cb;stop-opacity:1;" offset="0.988281"/><stop style="stop-color:#3533cb;stop-opacity:1;" offset="0.992188"/><stop style="stop-color:#3533cc;stop-opacity:1;" offset="0.996094"/><stop style="stop-color:#3533cd;stop-opacity:1;" offset="1"/></linearGradient><clipPath id="2b3226161d"><path d="M 165 299 L 479 299 L 479 598.976562 L 165 598.976562 Z M 165 299 "/></clipPath><clipPath id="7ddb73c38e"><path d="M 308 138.476562 L 625.382812 138.476562 L 625.382812 397 L 308 397 Z M 308 138.476562 "/></clipPath></defs><g id="33e6acd2ac"><rect x="0" width="768" y="0" height="767.999994" style="fill:url(#9e1db0c850);stroke:none;"/><g clip-rule="nonzero" clip-path="url(#2b3226161d)"><path style=" stroke:none;fill-rule:nonzero;fill:#f36c43;fill-opacity:1;" d="M 460.214844 492.210938 C 453.585938 485.582031 447.441406 478.464844 441.886719 470.957031 L 441.886719 514.832031 C 441.886719 516.394531 441.886719 517.953125 441.789062 519.414062 C 441.691406 520.878906 441.496094 522.4375 441.203125 524 C 440.910156 525.558594 440.617188 527.019531 440.128906 528.484375 C 439.742188 529.945312 439.253906 531.410156 438.667969 532.871094 C 438.082031 534.332031 437.496094 535.699219 436.71875 537.0625 C 436.035156 538.429688 435.253906 539.792969 434.378906 541.0625 C 433.5 542.328125 432.621094 543.597656 431.648438 544.765625 C 430.671875 545.9375 429.699219 547.105469 428.527344 548.179688 C 427.457031 549.25 426.285156 550.324219 425.113281 551.296875 C 423.945312 552.273438 422.675781 553.25 421.410156 554.125 C 420.144531 555.003906 418.777344 555.785156 417.414062 556.5625 C 416.046875 557.34375 414.683594 557.929688 413.21875 558.613281 C 411.757812 559.195312 410.390625 559.78125 408.832031 560.171875 C 407.371094 560.660156 405.90625 561.050781 404.347656 561.339844 C 402.789062 561.632812 401.324219 561.828125 399.765625 562.023438 C 398.203125 562.21875 396.644531 562.21875 395.183594 562.21875 C 393.621094 562.21875 392.0625 562.121094 390.597656 562.023438 C 389.039062 561.828125 387.578125 561.632812 386.015625 561.339844 C 384.457031 561.050781 382.996094 560.660156 381.53125 560.171875 C 380.070312 559.683594 378.605469 559.195312 377.144531 558.613281 C 375.683594 558.027344 374.316406 557.34375 372.953125 556.5625 C 371.585938 555.785156 370.320312 555.003906 368.953125 554.125 C 367.6875 553.25 366.417969 552.371094 365.25 551.296875 C 364.078125 550.324219 362.910156 549.25 361.835938 548.179688 C 360.765625 547.105469 359.691406 545.9375 358.714844 544.765625 C 357.742188 543.597656 356.863281 542.328125 355.988281 541.0625 C 355.109375 539.792969 354.328125 538.429688 353.644531 537.0625 C 352.964844 535.699219 352.28125 534.332031 351.695312 532.871094 C 351.113281 531.410156 350.625 529.945312 350.234375 528.484375 C 349.84375 527.019531 349.453125 525.460938 349.160156 524 C 348.867188 522.4375 348.675781 520.976562 348.578125 519.414062 C 348.480469 517.855469 348.382812 516.296875 348.480469 514.832031 L 348.480469 413.917969 L 247.855469 413.917969 C 245.417969 413.917969 242.980469 413.722656 240.542969 413.335938 C 238.105469 412.945312 235.765625 412.359375 233.425781 411.578125 C 231.085938 410.800781 228.84375 409.921875 226.699219 408.75 C 224.554688 407.679688 222.410156 406.3125 220.460938 404.949219 C 218.507812 403.488281 216.65625 401.925781 214.902344 400.171875 C 213.148438 398.417969 211.585938 396.5625 210.125 394.613281 C 208.660156 392.664062 207.394531 390.519531 206.320312 388.375 C 205.25 386.230469 204.273438 383.886719 203.492188 381.644531 C 202.714844 379.304688 202.226562 376.964844 201.835938 374.527344 C 201.445312 372.089844 201.25 369.652344 201.25 367.214844 C 201.25 364.777344 201.445312 362.339844 201.835938 359.902344 C 202.226562 357.464844 202.8125 355.125 203.589844 352.785156 C 204.371094 350.445312 205.347656 348.203125 206.417969 346.058594 C 207.492188 343.914062 208.855469 341.769531 210.222656 339.816406 C 211.683594 337.867188 213.246094 336.015625 215 334.261719 C 216.753906 332.503906 218.605469 330.945312 220.558594 329.582031 L 224.066406 327.046875 C 219.484375 323.242188 215.292969 319.148438 211.390625 314.664062 C 207.199219 309.980469 203.398438 305.011719 199.789062 299.84375 L 198.035156 301.109375 C 196.277344 302.378906 194.621094 303.742188 193.0625 305.203125 C 191.402344 306.667969 189.84375 308.128906 188.382812 309.691406 C 186.917969 311.25 185.457031 312.808594 184.089844 314.46875 C 182.726562 316.125 181.359375 317.78125 180.191406 319.636719 C 178.921875 321.390625 177.753906 323.242188 176.679688 325.09375 C 175.609375 326.949219 174.535156 328.800781 173.5625 330.75 C 172.585938 332.699219 171.707031 334.648438 170.929688 336.601562 C 170.148438 338.550781 169.367188 340.597656 168.785156 342.644531 C 168.101562 344.691406 167.613281 346.742188 167.125 348.886719 C 166.636719 351.03125 166.25 353.078125 165.957031 355.222656 C 165.664062 357.367188 165.371094 359.511719 165.273438 361.660156 C 165.175781 363.902344 165.175781 366.046875 165.175781 368.191406 C 165.175781 370.335938 165.273438 372.480469 165.46875 374.625 C 165.664062 376.769531 165.957031 378.914062 166.25 381.0625 C 166.636719 383.207031 167.027344 385.253906 167.515625 387.398438 C 168.003906 389.445312 168.6875 391.589844 169.269531 393.640625 C 169.953125 395.6875 170.734375 397.734375 171.511719 399.683594 C 172.390625 401.632812 173.269531 403.582031 174.242188 405.535156 C 175.21875 407.484375 176.292969 409.335938 177.460938 411.1875 C 178.632812 413.042969 179.800781 414.796875 181.070312 416.550781 C 182.335938 418.304688 183.703125 419.964844 185.066406 421.621094 C 186.429688 423.277344 187.992188 424.839844 189.453125 426.300781 C 191.015625 427.863281 192.574219 429.226562 194.230469 430.6875 C 195.890625 432.054688 197.546875 433.417969 199.300781 434.6875 C 201.054688 435.953125 202.8125 437.125 204.664062 438.292969 C 206.515625 439.464844 208.367188 440.441406 210.320312 441.414062 C 212.269531 442.390625 214.21875 443.265625 216.167969 444.144531 C 218.121094 444.925781 220.167969 445.703125 222.214844 446.386719 C 224.261719 447.070312 226.308594 447.65625 228.453125 448.140625 C 230.503906 448.628906 232.648438 449.019531 234.792969 449.410156 C 236.9375 449.703125 239.082031 449.996094 241.226562 450.191406 C 243.371094 450.382812 245.515625 450.480469 247.664062 450.480469 L 312.304688 450.480469 L 312.304688 515.027344 C 312.304688 516.394531 312.304688 517.757812 312.304688 519.125 C 312.304688 520.488281 312.402344 521.851562 312.5 523.21875 C 312.597656 524.582031 312.792969 525.949219 312.988281 527.3125 C 313.183594 528.679688 313.378906 530.042969 313.671875 531.410156 C 313.964844 532.773438 314.160156 534.136719 314.546875 535.40625 C 314.839844 536.769531 315.230469 538.039062 315.621094 539.402344 C 316.011719 540.671875 316.402344 542.035156 316.886719 543.304688 C 317.375 544.570312 317.765625 545.839844 318.351562 547.105469 C 318.839844 548.375 319.421875 549.640625 320.007812 550.910156 C 320.59375 552.175781 321.179688 553.347656 321.761719 554.613281 C 322.445312 555.785156 323.03125 557.050781 323.714844 558.222656 C 324.394531 559.390625 325.078125 560.5625 325.859375 561.730469 C 326.636719 562.902344 327.417969 563.972656 328.199219 565.144531 C 328.980469 566.214844 329.855469 567.289062 330.734375 568.363281 C 331.609375 569.433594 332.488281 570.507812 333.367188 571.480469 C 334.242188 572.457031 335.21875 573.527344 336.195312 574.503906 C 337.167969 575.480469 338.144531 576.453125 339.117188 577.332031 C 340.09375 578.210938 341.167969 579.183594 342.238281 580.0625 C 343.3125 580.9375 344.382812 581.816406 345.457031 582.597656 C 346.527344 583.375 347.699219 584.253906 348.769531 584.9375 C 349.941406 585.71875 351.015625 586.398438 352.183594 587.179688 C 353.355469 587.863281 354.523438 588.542969 355.792969 589.226562 C 356.960938 589.910156 358.230469 590.496094 359.496094 591.078125 C 360.765625 591.664062 361.933594 592.25 363.203125 592.738281 C 364.46875 593.222656 365.738281 593.808594 367.003906 594.199219 C 368.273438 594.6875 369.636719 595.078125 370.902344 595.46875 C 372.171875 595.855469 373.535156 596.246094 374.902344 596.539062 C 376.265625 596.832031 377.535156 597.222656 378.898438 597.417969 C 380.265625 597.613281 381.628906 597.90625 382.898438 598.097656 C 384.261719 598.292969 385.628906 598.488281 386.992188 598.585938 C 388.355469 598.683594 389.722656 598.78125 391.085938 598.878906 C 392.453125 598.976562 393.816406 598.976562 395.183594 598.976562 C 396.546875 598.976562 397.914062 598.976562 399.277344 598.878906 C 400.640625 598.78125 402.007812 598.683594 403.371094 598.585938 C 404.738281 598.488281 406.101562 598.292969 407.46875 598.097656 C 408.832031 597.90625 410.199219 597.710938 411.464844 597.417969 C 412.730469 597.125 414.097656 596.832031 415.460938 596.539062 C 416.828125 596.246094 418.09375 595.855469 419.460938 595.46875 C 420.726562 595.078125 422.09375 594.589844 423.359375 594.199219 C 424.628906 593.710938 425.894531 593.222656 427.164062 592.738281 C 428.429688 592.25 429.699219 591.664062 430.867188 591.078125 C 432.136719 590.496094 433.304688 589.910156 434.574219 589.226562 C 435.742188 588.542969 437.011719 587.863281 438.179688 587.179688 C 439.351562 586.496094 440.519531 585.71875 441.59375 584.9375 C 442.761719 584.15625 443.835938 583.375 444.90625 582.597656 C 445.980469 581.816406 447.054688 580.9375 448.125 580.0625 C 449.199219 579.183594 450.171875 578.308594 451.246094 577.332031 C 452.21875 576.453125 453.195312 575.480469 454.171875 574.503906 C 455.144531 573.527344 456.023438 572.554688 457 571.480469 C 457.875 570.507812 458.753906 569.433594 459.628906 568.363281 C 460.507812 567.289062 461.289062 566.214844 462.164062 565.144531 C 462.945312 564.070312 463.726562 562.902344 464.503906 561.730469 C 465.285156 560.5625 465.96875 559.390625 466.652344 558.222656 C 467.332031 557.050781 468.015625 555.882812 468.601562 554.613281 C 469.1875 553.445312 469.867188 552.175781 470.355469 550.910156 C 470.941406 549.640625 471.429688 548.375 472.011719 547.105469 C 472.5 545.839844 472.988281 544.570312 473.476562 543.304688 C 473.964844 542.035156 474.351562 540.671875 474.742188 539.402344 C 475.132812 538.136719 475.523438 536.769531 475.816406 535.40625 C 476.109375 534.042969 476.402344 532.773438 476.695312 531.410156 C 476.984375 530.042969 477.179688 528.679688 477.375 527.3125 C 477.570312 525.949219 477.667969 524.582031 477.863281 523.21875 C 477.960938 521.851562 478.058594 520.488281 478.058594 519.125 C 478.058594 517.757812 478.15625 516.394531 478.058594 515.027344 L 478.058594 507.617188 C 471.722656 502.742188 465.675781 497.769531 460.214844 492.210938 Z M 460.214844 492.210938 "/></g><g clip-rule="nonzero" clip-path="url(#7ddb73c38e)"><path style=" stroke:none;fill-rule:nonzero;fill:#3287bd;fill-opacity:1;" d="M 320.300781 300.523438 C 317.570312 306.960938 313.769531 312.710938 308.894531 317.683594 L 310.0625 320.414062 L 310.0625 320.707031 L 348.675781 320.707031 L 348.675781 219.988281 C 348.675781 218.527344 348.769531 216.964844 348.964844 215.503906 C 349.160156 214.039062 349.355469 212.480469 349.746094 211.019531 C 350.039062 209.554688 350.429688 208.09375 350.917969 206.628906 C 351.402344 205.167969 351.890625 203.804688 352.476562 202.4375 C 353.0625 201.074219 353.742188 199.707031 354.425781 198.34375 C 355.109375 196.976562 355.988281 195.710938 356.765625 194.539062 C 357.644531 193.273438 358.523438 192.101562 359.496094 190.933594 C 360.472656 189.761719 361.445312 188.691406 362.519531 187.617188 C 363.589844 186.546875 364.761719 185.570312 365.933594 184.59375 C 367.101562 183.621094 368.273438 182.742188 369.539062 181.960938 C 370.808594 181.183594 372.074219 180.402344 373.4375 179.71875 C 374.804688 179.039062 376.167969 178.355469 377.535156 177.769531 C 378.898438 177.183594 380.363281 176.699219 381.824219 176.308594 C 383.285156 175.917969 384.75 175.527344 386.210938 175.234375 C 387.675781 174.941406 389.136719 174.746094 390.695312 174.550781 C 392.160156 174.359375 393.71875 174.359375 395.183594 174.359375 C 396.644531 174.359375 398.203125 174.457031 399.667969 174.550781 C 401.128906 174.648438 402.691406 174.941406 404.152344 175.234375 C 405.613281 175.527344 407.078125 175.917969 408.539062 176.308594 C 410.003906 176.699219 411.367188 177.28125 412.828125 177.769531 C 414.195312 178.355469 415.558594 178.941406 416.925781 179.71875 C 418.289062 180.402344 419.558594 181.183594 420.824219 181.960938 C 422.09375 182.742188 423.261719 183.71875 424.433594 184.59375 C 425.601562 185.570312 426.773438 186.546875 427.84375 187.617188 C 428.917969 188.691406 429.992188 189.761719 430.867188 190.933594 C 431.84375 192.101562 432.71875 193.273438 433.597656 194.539062 C 434.476562 195.808594 435.253906 197.074219 435.9375 198.34375 C 436.621094 199.609375 437.304688 200.976562 437.886719 202.4375 C 438.472656 203.804688 439.058594 205.265625 439.449219 206.628906 C 439.933594 208.09375 440.324219 209.554688 440.617188 211.019531 C 440.910156 212.480469 441.203125 213.941406 441.398438 215.503906 C 441.59375 216.964844 441.691406 218.527344 441.691406 219.988281 L 441.691406 320.804688 L 459.046875 320.804688 C 461.875 319.441406 464.894531 318.367188 467.917969 317.683594 C 471.039062 317.003906 474.160156 316.613281 477.277344 316.613281 C 480.398438 316.613281 483.519531 317.003906 486.640625 317.683594 C 489.757812 318.367188 492.683594 319.441406 495.511719 320.804688 L 542.410156 320.804688 C 543.96875 320.804688 545.433594 320.902344 546.992188 321 C 548.550781 321.195312 550.015625 321.390625 551.476562 321.683594 C 552.941406 321.976562 554.402344 322.363281 555.863281 322.753906 C 557.328125 323.242188 558.789062 323.730469 560.15625 324.316406 C 561.519531 324.898438 562.984375 325.582031 564.25 326.265625 C 565.613281 326.949219 566.882812 327.726562 568.148438 328.605469 C 569.417969 329.484375 570.683594 330.359375 571.855469 331.335938 C 573.023438 332.308594 574.195312 333.285156 575.269531 334.359375 C 576.339844 335.429688 577.414062 336.601562 578.289062 337.769531 C 579.265625 338.941406 580.144531 340.207031 581.019531 341.476562 C 581.898438 342.742188 582.679688 344.011719 583.359375 345.375 C 584.042969 346.742188 584.726562 348.105469 585.308594 349.46875 C 585.894531 350.835938 586.382812 352.296875 586.871094 353.761719 C 587.359375 355.222656 587.648438 356.6875 587.941406 358.148438 C 588.234375 359.609375 588.429688 361.171875 588.625 362.632812 C 588.820312 364.191406 588.820312 365.65625 588.820312 367.214844 C 588.820312 370.042969 588.527344 372.871094 588.039062 375.601562 C 601.203125 378.234375 612.222656 383.402344 618.65625 394.90625 C 619.046875 395.492188 619.242188 396.171875 619.632812 396.855469 L 620.898438 393.152344 C 621.386719 391.589844 621.875 390.03125 622.261719 388.472656 C 622.652344 386.910156 623.042969 385.351562 623.335938 383.695312 C 623.628906 382.132812 623.921875 380.476562 624.214844 378.917969 C 624.507812 377.355469 624.601562 375.699219 624.796875 374.039062 C 624.894531 372.382812 624.992188 370.824219 625.089844 369.164062 C 625.089844 367.507812 625.089844 365.949219 625.089844 364.289062 C 624.992188 362.632812 624.894531 361.074219 624.796875 359.414062 C 624.699219 357.757812 624.410156 356.199219 624.214844 354.539062 C 623.921875 352.882812 623.628906 351.324219 623.335938 349.761719 C 622.945312 348.203125 622.554688 346.546875 622.164062 344.984375 C 621.777344 343.425781 621.289062 341.867188 620.703125 340.304688 C 620.214844 338.746094 619.632812 337.28125 618.949219 335.722656 C 618.363281 334.261719 617.679688 332.699219 617 331.238281 C 616.316406 329.773438 615.535156 328.3125 614.753906 326.949219 C 613.976562 325.582031 613.097656 324.121094 612.222656 322.753906 C 611.34375 321.390625 610.464844 320.023438 609.492188 318.757812 C 608.515625 317.390625 607.539062 316.125 606.46875 314.859375 C 605.394531 313.589844 604.324219 312.324219 603.25 311.152344 C 602.179688 309.980469 601.007812 308.8125 599.839844 307.640625 C 598.667969 306.472656 597.5 305.398438 596.230469 304.328125 C 594.964844 303.253906 593.695312 302.28125 592.429688 301.304688 C 591.160156 300.328125 589.796875 299.355469 588.429688 298.476562 C 587.066406 297.601562 585.699219 296.722656 584.335938 295.84375 C 582.96875 295.066406 581.507812 294.1875 580.046875 293.503906 C 578.582031 292.726562 577.121094 292.042969 575.65625 291.359375 C 574.195312 290.675781 572.636719 290.09375 571.074219 289.507812 C 569.515625 288.921875 568.050781 288.433594 566.492188 287.945312 C 564.933594 287.460938 563.371094 287.070312 561.8125 286.679688 C 560.253906 286.289062 558.59375 285.996094 557.035156 285.703125 C 555.476562 285.410156 553.816406 285.21875 552.160156 285.023438 C 550.503906 284.828125 548.941406 284.730469 547.285156 284.632812 C 545.628906 284.535156 544.066406 284.4375 542.410156 284.535156 L 477.863281 284.535156 L 477.863281 219.988281 C 477.863281 217.257812 477.667969 214.625 477.375 211.992188 C 477.082031 209.359375 476.597656 206.726562 476.109375 204.09375 C 475.523438 201.464844 474.839844 198.929688 474.0625 196.296875 C 473.28125 193.761719 472.304688 191.226562 471.234375 188.789062 C 470.160156 186.351562 468.992188 183.914062 467.722656 181.574219 C 466.457031 179.234375 464.992188 176.894531 463.53125 174.746094 C 461.972656 172.503906 460.410156 170.359375 458.65625 168.3125 C 456.902344 166.265625 455.144531 164.316406 453.195312 162.363281 C 451.246094 160.511719 449.296875 158.660156 447.152344 157.003906 C 445.101562 155.34375 442.859375 153.6875 440.617188 152.226562 C 438.375 150.761719 436.035156 149.398438 433.695312 148.128906 C 431.355469 146.863281 428.917969 145.789062 426.382812 144.71875 C 423.945312 143.742188 421.410156 142.765625 418.777344 142.085938 C 416.242188 141.304688 413.609375 140.621094 410.976562 140.132812 C 408.34375 139.648438 405.710938 139.257812 402.980469 138.964844 C 400.640625 138.574219 398.007812 138.476562 395.28125 138.476562 C 392.550781 138.476562 389.917969 138.574219 387.285156 138.867188 C 384.652344 139.160156 381.921875 139.550781 379.289062 140.035156 C 376.65625 140.523438 374.023438 141.207031 371.488281 141.988281 C 368.953125 142.765625 366.417969 143.644531 363.882812 144.621094 C 361.445312 145.59375 359.007812 146.765625 356.570312 148.03125 C 354.230469 149.300781 351.890625 150.664062 349.648438 152.128906 C 347.40625 153.589844 345.261719 155.148438 343.117188 156.90625 C 341.070312 158.5625 339.019531 160.414062 337.070312 162.265625 C 335.121094 164.121094 333.367188 166.167969 331.609375 168.214844 C 329.855469 170.261719 328.296875 172.40625 326.734375 174.648438 C 325.175781 176.894531 323.8125 179.136719 322.542969 181.476562 C 321.277344 183.816406 320.105469 186.253906 319.035156 188.691406 C 317.960938 191.128906 317.082031 193.664062 316.207031 196.199219 C 315.425781 198.734375 314.742188 201.367188 314.160156 204 C 313.574219 206.628906 313.183594 209.261719 312.890625 211.894531 C 312.597656 214.527344 312.402344 217.257812 312.402344 219.890625 L 312.402344 221.449219 C 322.25 245.242188 327.808594 282.390625 320.300781 300.523438 Z M 320.300781 300.523438 "/></g><path style=" stroke:none;fill-rule:nonzero;fill:#f36c43;fill-opacity:1;" d="M 191.402344 258.113281 C 192.964844 270.007812 205.152344 291.359375 219.582031 307.640625 C 225.53125 314.371094 234.402344 322.949219 242.789062 326.070312 C 246.589844 327.335938 250.390625 328.214844 254.390625 328.605469 C 258.386719 328.996094 262.289062 328.898438 266.285156 328.3125 L 270.476562 337.867188 C 270.769531 338.550781 271.160156 339.234375 271.648438 339.816406 C 272.136719 340.402344 272.621094 340.988281 273.304688 341.476562 C 273.890625 341.964844 274.574219 342.351562 275.253906 342.644531 C 275.9375 342.9375 276.71875 343.132812 277.496094 343.328125 L 277.886719 344.691406 L 282.273438 342.742188 C 282.664062 344.011719 283.152344 345.082031 283.640625 346.15625 C 286.566406 352.785156 290.464844 358.929688 295.242188 364.289062 C 299.4375 368.875 304.117188 372.96875 309.285156 376.382812 C 314.449219 379.792969 320.007812 382.523438 325.957031 384.570312 C 343.019531 390.714844 357.351562 388.667969 370.027344 386.8125 C 391.671875 383.695312 406.003906 381.644531 425.699219 423.183594 C 437.011719 447.167969 452.027344 468.910156 467.820312 484.609375 C 486.636719 503.230469 506.527344 513.175781 525.542969 513.664062 C 553.71875 514.25 578.386719 494.84375 599.058594 456.039062 C 613.097656 429.617188 616.511719 411.871094 609.976562 400.269531 C 601.886719 385.839844 581.898438 384.765625 558.691406 383.402344 C 541.042969 382.425781 521.058594 381.257812 505.261719 373.847656 C 505.554688 373.261719 505.847656 372.675781 506.140625 372.1875 C 506.429688 371.601562 506.625 371.019531 506.917969 370.433594 C 507.113281 369.847656 507.40625 369.261719 507.601562 368.679688 C 507.796875 368.09375 507.992188 367.507812 508.1875 366.824219 C 508.382812 366.242188 508.480469 365.558594 508.675781 364.972656 C 508.773438 364.386719 508.867188 363.707031 508.964844 363.121094 C 509.0625 362.4375 509.160156 361.851562 509.160156 361.171875 C 509.257812 360.488281 509.257812 359.902344 509.257812 359.21875 C 509.257812 358.539062 509.257812 357.953125 509.257812 357.269531 C 509.257812 356.589844 509.160156 356.003906 509.160156 355.320312 C 509.0625 354.636719 508.964844 354.054688 508.867188 353.46875 C 508.773438 352.882812 508.675781 352.199219 508.480469 351.617188 C 508.382812 351.03125 508.1875 350.347656 507.992188 349.761719 C 507.796875 349.179688 507.601562 348.59375 507.40625 347.910156 C 507.210938 347.324219 506.917969 346.742188 506.722656 346.15625 C 506.429688 345.570312 506.238281 344.984375 505.945312 344.402344 C 505.652344 343.816406 505.359375 343.230469 505.066406 342.742188 C 504.773438 342.15625 504.382812 341.671875 504.089844 341.085938 C 503.703125 340.597656 503.410156 340.011719 503.019531 339.523438 C 502.628906 339.039062 502.238281 338.550781 501.847656 338.0625 C 501.457031 337.574219 500.972656 337.085938 500.582031 336.699219 C 500.09375 336.210938 499.703125 335.820312 499.214844 335.332031 C 498.730469 334.941406 498.242188 334.457031 497.753906 334.066406 C 497.265625 333.675781 496.777344 333.285156 496.195312 332.894531 C 495.707031 332.503906 495.121094 332.210938 494.632812 331.824219 C 494.046875 331.53125 493.5625 331.140625 492.976562 330.847656 C 492.390625 330.554688 491.804688 330.261719 491.222656 329.96875 C 490.636719 329.675781 490.050781 329.484375 489.464844 329.191406 C 488.882812 328.996094 488.296875 328.703125 487.710938 328.507812 C 487.125 328.3125 486.445312 328.117188 485.859375 328.019531 C 485.273438 327.824219 484.589844 327.726562 484.007812 327.628906 C 483.421875 327.53125 482.738281 327.433594 482.152344 327.335938 C 481.570312 327.238281 480.886719 327.144531 480.203125 327.144531 C 479.519531 327.144531 478.9375 327.046875 478.253906 327.046875 C 477.570312 327.046875 476.984375 327.046875 476.304688 327.046875 C 475.621094 327.046875 475.035156 327.144531 474.351562 327.238281 C 473.671875 327.335938 473.085938 327.433594 472.5 327.53125 C 471.914062 327.628906 471.234375 327.726562 470.648438 327.921875 C 470.0625 328.117188 469.382812 328.214844 468.796875 328.410156 C 468.210938 328.605469 467.625 328.800781 466.945312 328.996094 C 466.359375 329.191406 465.773438 329.484375 465.1875 329.675781 C 464.601562 329.96875 464.019531 330.164062 463.433594 330.457031 C 462.847656 330.75 462.261719 331.042969 461.777344 331.433594 C 461.289062 331.824219 460.703125 332.113281 460.117188 332.503906 C 459.628906 332.894531 459.046875 333.285156 458.558594 333.675781 C 458.070312 334.066406 457.582031 334.457031 457.097656 334.84375 C 456.609375 335.234375 456.121094 335.722656 455.730469 336.113281 C 455.242188 336.601562 454.851562 336.992188 454.464844 337.476562 C 454.074219 337.964844 453.585938 338.453125 453.195312 338.941406 C 452.804688 339.429688 452.414062 339.914062 452.027344 340.5 C 451.636719 340.988281 451.34375 341.574219 450.953125 342.058594 C 450.660156 342.644531 450.269531 343.132812 449.976562 343.71875 C 449.6875 344.304688 449.394531 344.886719 449.101562 345.472656 C 448.808594 346.058594 448.613281 346.644531 448.320312 347.226562 C 448.125 347.8125 447.929688 348.398438 447.734375 349.082031 C 447.539062 349.664062 447.34375 350.25 447.25 350.933594 C 447.054688 351.519531 446.957031 352.199219 446.859375 352.785156 C 446.761719 353.371094 446.664062 354.054688 446.566406 354.636719 C 446.46875 355.320312 446.46875 355.90625 446.371094 356.589844 C 446.371094 357.269531 446.273438 357.855469 446.273438 358.539062 C 446.273438 359.21875 446.273438 359.804688 446.371094 360.488281 C 446.371094 361.171875 446.46875 361.753906 446.566406 362.4375 C 446.664062 363.121094 446.761719 363.707031 446.859375 364.289062 C 446.957031 364.875 447.152344 365.558594 447.25 366.144531 C 447.34375 366.726562 447.539062 367.410156 447.734375 367.996094 C 447.929688 368.582031 448.125 369.164062 448.320312 369.847656 C 448.515625 370.433594 448.808594 371.019531 449.101562 371.601562 C 449.394531 372.1875 449.6875 372.773438 449.976562 373.359375 C 450.269531 373.945312 450.5625 374.429688 450.953125 375.015625 C 451.246094 375.601562 451.636719 376.089844 452.027344 376.574219 C 452.414062 377.0625 452.804688 377.648438 453.195312 378.136719 C 453.585938 378.625 453.976562 379.109375 454.464844 379.597656 C 454.851562 380.085938 455.339844 380.574219 455.828125 380.964844 C 456.316406 381.449219 456.707031 381.839844 457.191406 382.230469 C 457.679688 382.621094 458.167969 383.011719 458.65625 383.402344 C 459.144531 383.792969 459.628906 384.179688 460.214844 384.570312 C 460.703125 384.960938 461.289062 385.253906 461.875 385.644531 C 462.457031 385.9375 462.945312 386.324219 463.53125 386.617188 C 464.117188 386.910156 464.699219 387.203125 465.285156 387.398438 C 465.871094 387.691406 466.457031 387.886719 467.039062 388.082031 C 467.625 388.277344 468.210938 388.472656 468.894531 388.667969 C 469.476562 388.859375 470.160156 389.054688 470.746094 389.152344 C 471.332031 389.347656 472.011719 389.445312 472.597656 389.542969 C 473.183594 389.640625 473.867188 389.738281 474.449219 389.835938 C 475.132812 389.933594 475.71875 389.933594 476.402344 390.03125 C 477.082031 390.03125 477.667969 390.03125 478.351562 390.03125 C 479.035156 390.03125 479.617188 390.03125 480.300781 389.933594 C 480.984375 389.933594 481.570312 389.835938 482.25 389.738281 C 482.835938 389.640625 483.519531 389.542969 484.105469 389.445312 C 484.6875 389.347656 485.371094 389.152344 485.957031 389.054688 C 486.542969 388.859375 487.222656 388.761719 487.808594 388.570312 C 488.394531 388.375 488.980469 388.179688 489.5625 387.886719 C 490.148438 387.691406 490.734375 387.398438 491.320312 387.105469 C 491.902344 386.8125 492.488281 386.519531 493.074219 386.230469 C 493.660156 385.9375 494.144531 385.644531 494.730469 385.253906 C 495.316406 384.960938 495.804688 384.570312 496.292969 384.179688 C 515.402344 394.320312 538.121094 395.589844 558.300781 396.757812 C 576.730469 397.832031 594.085938 398.804688 598.570312 406.703125 C 601.300781 411.480469 601.59375 422.792969 587.457031 449.507812 C 569.417969 483.535156 548.746094 500.597656 526.222656 500.011719 C 489.953125 499.234375 456.21875 454.96875 438.375 417.332031 C 414.390625 366.824219 391.085938 370.140625 368.5625 373.359375 C 356.960938 375.015625 344.96875 376.769531 331.027344 371.796875 C 309.089844 363.902344 299.339844 348.984375 295.046875 337.183594 L 296.023438 336.796875 C 296.609375 336.601562 297.09375 336.210938 297.582031 335.917969 C 298.070312 335.625 298.558594 335.136719 298.949219 334.746094 C 299.339844 334.359375 299.726562 333.871094 300.117188 333.285156 C 300.410156 332.796875 300.703125 332.210938 300.898438 331.628906 C 301.09375 331.042969 301.289062 330.457031 301.386719 329.871094 C 301.484375 329.289062 301.582031 328.703125 301.582031 328.019531 C 301.582031 327.433594 301.484375 326.851562 301.386719 326.265625 C 301.289062 325.679688 301.09375 325.09375 300.800781 324.511719 L 296.609375 314.953125 C 299.726562 312.417969 302.457031 309.59375 304.894531 306.472656 C 307.332031 303.351562 309.378906 299.84375 310.941406 296.234375 C 318.9375 276.929688 308.601562 227.59375 296.023438 212.382812 C 290.269531 205.558594 281.59375 201.65625 270.671875 200.976562 C 269.988281 199.707031 269.113281 198.539062 268.039062 197.464844 C 266.96875 196.394531 265.894531 195.515625 264.628906 194.734375 C 263.359375 193.957031 261.996094 193.371094 260.53125 192.980469 C 259.070312 192.589844 257.609375 192.394531 256.144531 192.394531 C 255.460938 192.394531 254.78125 192.394531 254.097656 192.492188 C 253.414062 192.589844 252.730469 192.6875 252.148438 192.882812 C 251.464844 193.078125 250.878906 193.273438 250.199219 193.46875 C 249.613281 193.664062 248.929688 193.957031 248.34375 194.34375 C 247.761719 194.636719 247.175781 195.027344 246.589844 195.417969 C 246.003906 195.808594 245.515625 196.199219 245.03125 196.683594 C 244.542969 197.171875 244.054688 197.660156 243.664062 198.148438 C 243.273438 198.636719 242.789062 199.21875 242.496094 199.804688 C 242.105469 200.390625 241.8125 200.976562 241.519531 201.5625 C 241.226562 202.144531 240.933594 202.828125 240.738281 203.414062 C 240.542969 204.09375 240.351562 204.679688 240.15625 205.363281 C 240.058594 206.046875 239.960938 206.726562 239.863281 207.410156 C 239.765625 208.09375 239.765625 208.777344 239.863281 209.457031 C 239.863281 210.140625 239.960938 210.824219 240.058594 211.503906 C 240.15625 212.1875 240.351562 212.871094 240.542969 213.457031 C 240.738281 214.136719 240.933594 214.722656 241.226562 215.308594 C 241.910156 216.769531 242.691406 218.136719 243.761719 219.402344 C 244.835938 220.671875 246.003906 221.644531 247.371094 222.523438 C 248.734375 223.402344 250.199219 224.082031 251.757812 224.472656 C 253.316406 224.863281 254.878906 225.15625 256.535156 225.058594 C 258.191406 225.058594 259.753906 224.765625 261.3125 224.277344 C 262.871094 223.789062 264.335938 223.011719 265.601562 222.132812 C 266.96875 221.160156 268.136719 220.085938 269.113281 218.816406 C 270.085938 217.550781 270.867188 216.089844 271.453125 214.625 C 277.59375 215.210938 282.179688 217.257812 285.199219 220.671875 L 285.492188 221.0625 C 289.976562 226.421875 294.851562 240.269531 297.777344 255.382812 C 300.605469 270.496094 300.898438 285.023438 298.363281 291.066406 C 293.78125 302.183594 281.203125 309.59375 277.304688 311.738281 C 273.011719 313.199219 259.070312 317.390625 247.855469 313.199219 C 241.714844 310.957031 231.378906 301.011719 222.117188 288.433594 C 212.855469 275.855469 206.125 263.085938 205.25 256.0625 C 204.664062 251.382812 206.222656 246.507812 210.125 241.339844 C 210.710938 241.632812 211.390625 241.828125 212.074219 241.925781 C 212.757812 242.121094 213.339844 242.21875 214.023438 242.316406 C 214.707031 242.414062 215.390625 242.414062 216.070312 242.511719 C 216.753906 242.511719 217.4375 242.511719 218.121094 242.414062 C 218.800781 242.316406 219.484375 242.21875 220.070312 242.023438 C 220.75 241.828125 221.335938 241.632812 222.019531 241.4375 C 222.605469 241.242188 223.285156 240.953125 223.871094 240.660156 C 224.457031 240.367188 225.042969 239.976562 225.625 239.585938 C 226.210938 239.195312 226.699219 238.804688 227.1875 238.320312 C 227.675781 237.832031 228.160156 237.441406 228.648438 236.855469 C 229.136719 236.367188 229.527344 235.785156 229.917969 235.296875 C 230.308594 234.710938 230.597656 234.125 230.988281 233.542969 C 231.28125 232.957031 231.574219 232.371094 231.769531 231.6875 C 231.964844 231.105469 232.160156 230.421875 232.355469 229.738281 C 232.550781 229.054688 232.648438 228.472656 232.648438 227.789062 C 232.746094 227.105469 232.746094 226.421875 232.746094 225.742188 C 232.746094 225.058594 232.648438 224.375 232.550781 223.695312 C 232.453125 223.011719 232.355469 222.328125 232.160156 221.742188 C 231.964844 221.0625 231.769531 220.476562 231.476562 219.792969 C 231.183594 219.207031 230.890625 218.527344 230.597656 217.941406 C 230.308594 217.355469 229.917969 216.769531 229.527344 216.285156 C 229.136719 215.699219 228.746094 215.210938 228.257812 214.722656 C 227.773438 214.234375 227.285156 213.75 226.796875 213.359375 C 226.308594 212.96875 225.722656 212.578125 225.140625 212.1875 C 224.554688 211.796875 223.96875 211.503906 223.382812 211.214844 C 222.800781 210.921875 222.117188 210.628906 221.53125 210.433594 C 220.847656 210.238281 220.265625 210.042969 219.582031 209.945312 C 218.898438 209.847656 218.21875 209.75 217.632812 209.652344 C 216.949219 209.554688 216.265625 209.554688 215.585938 209.652344 C 214.902344 209.652344 214.21875 209.75 213.535156 209.847656 C 212.855469 209.945312 212.171875 210.140625 211.585938 210.335938 C 210.902344 210.53125 210.320312 210.726562 209.734375 211.019531 C 208.757812 211.410156 207.882812 211.894531 207.003906 212.480469 C 206.125 213.066406 205.347656 213.75 204.664062 214.429688 C 203.882812 215.210938 203.300781 215.992188 202.714844 216.769531 C 202.128906 217.550781 201.640625 218.527344 201.25 219.5 C 200.863281 220.476562 200.472656 221.449219 200.277344 222.425781 C 200.082031 223.402344 199.886719 224.472656 199.886719 225.449219 C 199.886719 226.519531 199.886719 227.496094 200.082031 228.570312 C 200.277344 229.542969 200.472656 230.617188 200.863281 231.589844 C 193.257812 240.269531 190.234375 249.335938 191.402344 258.113281 Z M 191.402344 258.113281 "/></g></svg>